<?xml version="1.0" encoding="UTF-8"?>
<!DOCTYPE svg PUBLIC "-//W3C//DTD SVG 1.1//EN" "http://www.w3.org/Graphics/SVG/1.1/DTD/svg11.dtd">
<svg xmlns="http://www.w3.org/2000/svg" version="1.1" width="1867px" height="150px" style="shape-rendering:geometricPrecision; text-rendering:geometricPrecision; image-rendering:optimizeQuality; fill-rule:evenodd; clip-rule:evenodd" xmlns:xlink="http://www.w3.org/1999/xlink">
<g><path style="opacity:1" fill="#000000" d="M -0.5,-0.5 C 278.167,-0.5 556.833,-0.5 835.5,-0.5C 836.167,3.5 836.833,3.5 837.5,-0.5C 913.5,-0.5 989.5,-0.5 1065.5,-0.5C 1065.2,2.33562 1065.87,2.83562 1067.5,1C 1066.94,0.617425 1066.61,0.117425 1066.5,-0.5C 1333.17,-0.5 1599.83,-0.5 1866.5,-0.5C 1866.5,49.5 1866.5,99.5 1866.5,149.5C 1244.17,149.5 621.833,149.5 -0.5,149.5C -0.5,99.5 -0.5,49.5 -0.5,-0.5 Z"/></g>
<g><path style="opacity:1" fill="#6a6a6a" d="M 835.5,-0.5 C 836.167,-0.5 836.833,-0.5 837.5,-0.5C 836.833,3.5 836.167,3.5 835.5,-0.5 Z"/></g>
<g><path style="opacity:1" fill="#595959" d="M 1065.5,-0.5 C 1065.83,-0.5 1066.17,-0.5 1066.5,-0.5C 1066.61,0.117425 1066.94,0.617425 1067.5,1C 1065.87,2.83562 1065.2,2.33562 1065.5,-0.5 Z"/></g>
<g><path style="opacity:1" fill="#686868" d="M 290.5,0.5 C 293.674,0.952211 294.007,1.95221 291.5,3.5C 289.481,2.86709 289.147,1.86709 290.5,0.5 Z"/></g>
<g><path style="opacity:1" fill="#686868" d="M 1570.5,0.5 C 1573.67,0.952211 1574.01,1.95221 1571.5,3.5C 1569.48,2.86709 1569.15,1.86709 1570.5,0.5 Z"/></g>
<g><path style="opacity:1" fill="#7b7b7b" d="M 299.5,5.5 C 300.675,5.28099 301.675,5.61432 302.5,6.5C 300.948,7.79789 299.948,7.46455 299.5,5.5 Z"/></g>
<g><path style="opacity:1" fill="#707070" d="M 479.5,5.5 C 480.675,5.28099 481.675,5.61432 482.5,6.5C 480.948,7.79789 479.948,7.46455 479.5,5.5 Z"/></g>
<g><path style="opacity:1" fill="#767676" d="M 1035.5,4.5 C 1037.46,4.94835 1037.8,5.94835 1036.5,7.5C 1035.61,6.67504 1035.28,5.67504 1035.5,4.5 Z"/></g>
<g><path style="opacity:1" fill="#7b7b7b" d="M 1579.5,5.5 C 1580.68,5.28099 1581.68,5.61432 1582.5,6.5C 1580.95,7.79789 1579.95,7.46455 1579.5,5.5 Z"/></g>
<g><path style="opacity:1" fill="#707070" d="M 1759.5,5.5 C 1760.68,5.28099 1761.68,5.61432 1762.5,6.5C 1760.95,7.79789 1759.95,7.46455 1759.5,5.5 Z"/></g>
<g><path style="opacity:1" fill="#787878" d="M 10.5,4.5 C 12.4646,4.94835 12.7979,5.94835 11.5,7.5C 10.6143,6.67504 10.281,5.67504 10.5,4.5 Z"/></g>
<g><path style="opacity:1" fill="#676767" d="M 1100.5,5.5 C 1102.34,5.63945 1102.67,6.30612 1101.5,7.5C 1100.7,7.04311 1100.37,6.37644 1100.5,5.5 Z"/></g>
<g><path style="opacity:1" fill="#787878" d="M 1290.5,4.5 C 1292.46,4.94835 1292.8,5.94835 1291.5,7.5C 1290.61,6.67504 1290.28,5.67504 1290.5,4.5 Z"/></g>
<g><path style="opacity:1" fill="#7c7c7c" d="M 39.5,10.5 C 40.675,10.281 41.675,10.6143 42.5,11.5C 40.9483,12.7979 39.9483,12.4646 39.5,10.5 Z"/></g>
<g><path style="opacity:1" fill="#787878" d="M 55.5,10.5 C 57.4646,10.9483 57.7979,11.9483 56.5,13.5C 55.6143,12.675 55.281,11.675 55.5,10.5 Z"/></g>
<g><path style="opacity:1" fill="#7c7c7c" d="M 465.5,10.5 C 467.337,10.6395 467.67,11.3061 466.5,12.5C 465.702,12.0431 465.369,11.3764 465.5,10.5 Z"/></g>
<g><path style="opacity:1" fill="#8d8d8d" d="M 705.5,10.5 C 707.337,10.6395 707.67,11.3061 706.5,12.5C 705.702,12.0431 705.369,11.3764 705.5,10.5 Z"/></g>
<g><path style="opacity:1" fill="#4e4e4e" d="M 836.5,9.5 C 837.776,10.3864 837.776,11.3864 836.5,12.5C 835.438,11.5754 835.438,10.5754 836.5,9.5 Z"/></g>
<g><path style="opacity:1" fill="#6d6d6d" d="M 1220.5,10.5 C 1222.34,10.6395 1222.67,11.3061 1221.5,12.5C 1220.7,12.0431 1220.37,11.3764 1220.5,10.5 Z"/></g>
<g><path style="opacity:1" fill="#7c7c7c" d="M 1319.5,10.5 C 1320.68,10.281 1321.68,10.6143 1322.5,11.5C 1320.95,12.7979 1319.95,12.4646 1319.5,10.5 Z"/></g>
<g><path style="opacity:1" fill="#787878" d="M 1335.5,10.5 C 1337.46,10.9483 1337.8,11.9483 1336.5,13.5C 1335.61,12.675 1335.28,11.675 1335.5,10.5 Z"/></g>
<g><path style="opacity:1" fill="#7c7c7c" d="M 1745.5,10.5 C 1747.34,10.6395 1747.67,11.3061 1746.5,12.5C 1745.7,12.0431 1745.37,11.3764 1745.5,10.5 Z"/></g>
<g><path style="opacity:1" fill="#727272" d="M 50.5,14.5 C 52.4646,14.9483 52.7979,15.9483 51.5,17.5C 50.6143,16.675 50.281,15.675 50.5,14.5 Z"/></g>
<g><path style="opacity:1" fill="#979797" d="M 1035.5,15.5 C 1037.34,15.6395 1037.67,16.3061 1036.5,17.5C 1035.7,17.0431 1035.37,16.3764 1035.5,15.5 Z"/></g>
<g><path style="opacity:1" fill="#727272" d="M 1330.5,14.5 C 1332.46,14.9483 1332.8,15.9483 1331.5,17.5C 1330.61,16.675 1330.28,15.675 1330.5,14.5 Z"/></g>
<g><path style="opacity:1" fill="#646464" d="M 664.5,15.5 C 666.337,15.6395 666.67,16.3061 665.5,17.5C 664.702,17.0431 664.369,16.3764 664.5,15.5 Z"/></g>
<g><path style="opacity:1" fill="#676767" d="M 95.5,20.5 C 97.337,20.6395 97.6704,21.3061 96.5,22.5C 95.7025,22.0431 95.3691,21.3764 95.5,20.5 Z"/></g>
<g><path style="opacity:1" fill="#4e4e4e" d="M 805.5,20.5 C 807.337,20.6395 807.67,21.3061 806.5,22.5C 805.702,22.0431 805.369,21.3764 805.5,20.5 Z"/></g>
<g><path style="opacity:1" fill="#767676" d="M 920.5,20.5 C 921.376,20.3691 922.043,20.7025 922.5,21.5C 920.192,22.8734 919.525,22.5401 920.5,20.5 Z"/></g>
<g><path style="opacity:1" fill="#696969" d="M 1050.5,20.5 C 1052.97,20.9473 1053.14,21.9473 1051,23.5C 1049.27,22.6477 1049.1,21.6477 1050.5,20.5 Z"/></g>
<g><path style="opacity:1" fill="#676767" d="M 1375.5,20.5 C 1377.34,20.6395 1377.67,21.3061 1376.5,22.5C 1375.7,22.0431 1375.37,21.3764 1375.5,20.5 Z"/></g>
<g><path style="opacity:1" fill="#7b7b7b" d="M 560.5,25.5 C 562.337,25.6395 562.67,26.3061 561.5,27.5C 560.702,27.0431 560.369,26.3764 560.5,25.5 Z"/></g>
<g><path style="opacity:1" fill="#585858" d="M 1230.5,25.5 C 1232.34,25.6395 1232.67,26.3061 1231.5,27.5C 1230.7,27.0431 1230.37,26.3764 1230.5,25.5 Z"/></g>
<g><path style="opacity:1" fill="#7b7b7b" d="M 1840.5,25.5 C 1842.34,25.6395 1842.67,26.3061 1841.5,27.5C 1840.7,27.0431 1840.37,26.3764 1840.5,25.5 Z"/></g>
<g><path style="opacity:1" fill="#818181" d="M 5.5,29.5 C 7.46455,29.9483 7.79789,30.9483 6.5,32.5C 5.61432,31.675 5.28099,30.675 5.5,29.5 Z"/></g>
<g><path style="opacity:1" fill="#555555" d="M 620.5,29.5 C 622.337,29.6395 622.67,30.3061 621.5,31.5C 620.702,31.0431 620.369,30.3764 620.5,29.5 Z"/></g>
<g><path style="opacity:1" fill="#5f5f5f" d="M 939.5,31.5 C 940.251,30.4265 941.251,30.2599 942.5,31C 941.648,32.7284 940.648,32.895 939.5,31.5 Z"/></g>
<g><path style="opacity:1" fill="#636363" d="M 1275.5,30.5 C 1277.34,30.6395 1277.67,31.3061 1276.5,32.5C 1275.7,32.0431 1275.37,31.3764 1275.5,30.5 Z"/></g>
<g><path style="opacity:1" fill="#818181" d="M 1285.5,29.5 C 1287.46,29.9483 1287.8,30.9483 1286.5,32.5C 1285.61,31.675 1285.28,30.675 1285.5,29.5 Z"/></g>
<g><path style="opacity:1" fill="#9b9c9b" d="M 10.5,35.5 C 12.337,35.6395 12.6704,36.3061 11.5,37.5C 10.7025,37.0431 10.3691,36.3764 10.5,35.5 Z"/></g>
<g><path style="opacity:1" fill="#4b4b4b" d="M 395.5,34.5 C 397.337,34.6395 397.67,35.3061 396.5,36.5C 395.702,36.0431 395.369,35.3764 395.5,34.5 Z"/></g>
<g><path style="opacity:1" fill="#7e7e7e" d="M 865.5,34.5 C 867.465,34.9483 867.798,35.9483 866.5,37.5C 865.614,36.675 865.281,35.675 865.5,34.5 Z"/></g>
<g><path style="opacity:1" fill="#777777" d="M 974.5,35.5 C 975.978,35.238 977.311,35.5713 978.5,36.5C 977.833,36.8333 977.167,37.1667 976.5,37.5C 975.287,37.2528 974.62,36.5862 974.5,35.5 Z"/></g>
<g><path style="opacity:1" fill="#9b9c9b" d="M 1290.5,35.5 C 1292.34,35.6395 1292.67,36.3061 1291.5,37.5C 1290.7,37.0431 1290.37,36.3764 1290.5,35.5 Z"/></g>
<g><path style="opacity:1" fill="#4b4b4b" d="M 1675.5,34.5 C 1677.34,34.6395 1677.67,35.3061 1676.5,36.5C 1675.7,36.0431 1675.37,35.3764 1675.5,34.5 Z"/></g>
<g><path style="opacity:1" fill="#626262" d="M 185.5,35.5 C 187.465,35.9483 187.798,36.9483 186.5,38.5C 185.614,37.675 185.281,36.675 185.5,35.5 Z"/></g>
<g><path style="opacity:1" fill="#626262" d="M 1465.5,35.5 C 1467.46,35.9483 1467.8,36.9483 1466.5,38.5C 1465.61,37.675 1465.28,36.675 1465.5,35.5 Z"/></g>
<g><path style="opacity:1" fill="#7b7b7b" d="M 675.5,39.5 C 677.465,39.9483 677.798,40.9483 676.5,42.5C 675.614,41.675 675.281,40.675 675.5,39.5 Z"/></g>
<g><path style="opacity:1" fill="#6a6a6a" d="M 1215.5,39.5 C 1217.46,39.9483 1217.8,40.9483 1216.5,42.5C 1215.61,41.675 1215.28,40.675 1215.5,39.5 Z"/></g>
<g><path style="opacity:1" fill="#676767" d="M 160.5,40.5 C 161.675,40.281 162.675,40.6143 163.5,41.5C 161.948,42.7979 160.948,42.4646 160.5,40.5 Z"/></g>
<g><path style="opacity:1" fill="#676767" d="M 1440.5,40.5 C 1441.68,40.281 1442.68,40.6143 1443.5,41.5C 1441.95,42.7979 1440.95,42.4646 1440.5,40.5 Z"/></g>
<g><path style="opacity:1" fill="#6f6f6f" d="M 15.5,45.5 C 17.337,45.6395 17.6704,46.3061 16.5,47.5C 15.7025,47.0431 15.3691,46.3764 15.5,45.5 Z"/></g>
<g><path style="opacity:1" fill="#6f6f6f" d="M 1295.5,45.5 C 1297.34,45.6395 1297.67,46.3061 1296.5,47.5C 1295.7,47.0431 1295.37,46.3764 1295.5,45.5 Z"/></g>
<g><path style="opacity:1" fill="#616161" d="M 389.5,45.5 C 390.675,45.281 391.675,45.6143 392.5,46.5C 390.948,47.7979 389.948,47.4646 389.5,45.5 Z"/></g>
<g><path style="opacity:1" fill="#6a6a6a" d="M 995.5,45.5 C 997.337,45.6395 997.67,46.3061 996.5,47.5C 995.702,47.0431 995.369,46.3764 995.5,45.5 Z"/></g>
<g><path style="opacity:1" fill="#858585" d="M 1025.5,45.5 C 1027.34,45.6395 1027.67,46.3061 1026.5,47.5C 1025.7,47.0431 1025.37,46.3764 1025.5,45.5 Z"/></g>
<g><path style="opacity:1" fill="#616161" d="M 1669.5,45.5 C 1670.68,45.281 1671.68,45.6143 1672.5,46.5C 1670.95,47.7979 1669.95,47.4646 1669.5,45.5 Z"/></g>
<g><path style="opacity:1" fill="#4b4b4b" d="M 580.5,49.5 C 582.337,49.6395 582.67,50.3061 581.5,51.5C 580.702,51.0431 580.369,50.3764 580.5,49.5 Z"/></g>
<g><path style="opacity:1" fill="#7d7d7d" d="M 745.5,49.5 C 747.465,49.9483 747.798,50.9483 746.5,52.5C 745.614,51.675 745.281,50.675 745.5,49.5 Z"/></g>
<g><path style="opacity:1" fill="#9b9b9b" d="M 880.5,50.5 C 882.337,50.6395 882.67,51.3061 881.5,52.5C 880.702,52.0431 880.369,51.3764 880.5,50.5 Z"/></g>
<g><path style="opacity:1" fill="#7d7d7d" d="M 1130.5,49.5 C 1132.46,49.9483 1132.8,50.9483 1131.5,52.5C 1130.61,51.675 1130.28,50.675 1130.5,49.5 Z"/></g>
<g><path style="opacity:1" fill="#4b4b4b" d="M 1860.5,49.5 C 1862.34,49.6395 1862.67,50.3061 1861.5,51.5C 1860.7,51.0431 1860.37,50.3764 1860.5,49.5 Z"/></g>
<g><path style="opacity:1" fill="#6f6f6f" d="M 85.5,50.5 C 88.9571,50.6672 89.2904,51.6672 86.5,53.5C 85.6143,52.675 85.281,51.675 85.5,50.5 Z"/></g>
<g><path style="opacity:1" fill="#5f5f5f" d="M 1035.5,50.5 C 1038.55,50.494 1039.05,51.494 1037,53.5C 1035.96,52.7562 1035.46,51.7562 1035.5,50.5 Z"/></g>
<g><path style="opacity:1" fill="#6f6f6f" d="M 1365.5,50.5 C 1368.96,50.6672 1369.29,51.6672 1366.5,53.5C 1365.61,52.675 1365.28,51.675 1365.5,50.5 Z"/></g>
<g><path style="opacity:1" fill="#7a7a7a" d="M 825.5,55.5 C 827.465,55.9483 827.798,56.9483 826.5,58.5C 825.614,57.675 825.281,56.675 825.5,55.5 Z"/></g>
<g><path style="opacity:1" fill="#6a6a6a" d="M 70.5,65.5 C 72.337,65.6395 72.6704,66.3061 71.5,67.5C 70.7025,67.0431 70.3691,66.3764 70.5,65.5 Z"/></g>
<g><path style="opacity:1" fill="#6a6a6a" d="M 850.5,65.5 C 852.337,65.6395 852.67,66.3061 851.5,67.5C 850.702,67.0431 850.369,66.3764 850.5,65.5 Z"/></g>
<g><path style="opacity:1" fill="#7f7f7f" d="M 965.5,65.5 C 967.465,65.9483 967.798,66.9483 966.5,68.5C 965.614,67.675 965.281,66.675 965.5,65.5 Z"/></g>
<g><path style="opacity:1" fill="#6a6a6a" d="M 1350.5,65.5 C 1352.34,65.6395 1352.67,66.3061 1351.5,67.5C 1350.7,67.0431 1350.37,66.3764 1350.5,65.5 Z"/></g>
<g><path style="opacity:1" fill="#939393" d="M 35.5,70.5 C 37.337,70.6395 37.6704,71.3061 36.5,72.5C 35.7025,72.0431 35.3691,71.3764 35.5,70.5 Z"/></g>
<g><path style="opacity:1" fill="#717171" d="M 654.5,70.5 C 655.675,70.281 656.675,70.6143 657.5,71.5C 655.948,72.7979 654.948,72.4646 654.5,70.5 Z"/></g>
<g><path style="opacity:1" fill="#939393" d="M 1315.5,70.5 C 1317.34,70.6395 1317.67,71.3061 1316.5,72.5C 1315.7,72.0431 1315.37,71.3764 1315.5,70.5 Z"/></g>
<g><path style="opacity:1" fill="#585858" d="M 364.5,75.5 C 365.675,75.281 366.675,75.6143 367.5,76.5C 365.948,77.7979 364.948,77.4646 364.5,75.5 Z"/></g>
<g><path style="opacity:1" fill="#888888" d="M 565.5,74.5 C 567.465,74.9483 567.798,75.9483 566.5,77.5C 565.614,76.675 565.281,75.675 565.5,74.5 Z"/></g>
<g><path style="opacity:1" fill="#585858" d="M 1644.5,75.5 C 1645.68,75.281 1646.68,75.6143 1647.5,76.5C 1645.95,77.7979 1644.95,77.4646 1644.5,75.5 Z"/></g>
<g><path style="opacity:1" fill="#888888" d="M 1845.5,74.5 C 1847.46,74.9483 1847.8,75.9483 1846.5,77.5C 1845.61,76.675 1845.28,75.675 1845.5,74.5 Z"/></g>
<g><path style="opacity:1" fill="#636363" d="M 70.5,75.5 C 72.4646,75.9483 72.7979,76.9483 71.5,78.5C 70.6143,77.675 70.281,76.675 70.5,75.5 Z"/></g>
<g><path style="opacity:1" fill="#545454" d="M 80.5,75.5 C 82.337,75.6395 82.6704,76.3061 81.5,77.5C 80.7025,77.0431 80.3691,76.3764 80.5,75.5 Z"/></g>
<g><path style="opacity:1" fill="#535353" d="M 109.5,75.5 C 112.797,75.3287 113.131,75.9954 110.5,77.5C 109.702,77.0431 109.369,76.3764 109.5,75.5 Z"/></g>
<g><path style="opacity:1" fill="#595959" d="M 159.5,75.5 C 161.337,75.6395 161.67,76.3061 160.5,77.5C 159.702,77.0431 159.369,76.3764 159.5,75.5 Z"/></g>
<g><path style="opacity:1" fill="#4c4c4c" d="M 661.5,75.5 C 663.337,75.6395 663.67,76.3061 662.5,77.5C 661.702,77.0431 661.369,76.3764 661.5,75.5 Z"/></g>
<g><path style="opacity:1" fill="#878787" d="M 1195.5,75.5 C 1197.46,75.9483 1197.8,76.9483 1196.5,78.5C 1195.61,77.675 1195.28,76.675 1195.5,75.5 Z"/></g>
<g><path style="opacity:1" fill="#636363" d="M 1350.5,75.5 C 1352.46,75.9483 1352.8,76.9483 1351.5,78.5C 1350.61,77.675 1350.28,76.675 1350.5,75.5 Z"/></g>
<g><path style="opacity:1" fill="#545454" d="M 1360.5,75.5 C 1362.34,75.6395 1362.67,76.3061 1361.5,77.5C 1360.7,77.0431 1360.37,76.3764 1360.5,75.5 Z"/></g>
<g><path style="opacity:1" fill="#535353" d="M 1389.5,75.5 C 1392.8,75.3287 1393.13,75.9954 1390.5,77.5C 1389.7,77.0431 1389.37,76.3764 1389.5,75.5 Z"/></g>
<g><path style="opacity:1" fill="#595959" d="M 1439.5,75.5 C 1441.34,75.6395 1441.67,76.3061 1440.5,77.5C 1439.7,77.0431 1439.37,76.3764 1439.5,75.5 Z"/></g>
<g><path style="opacity:1" fill="#6b6b6b" d="M 740.5,80.5 C 742.337,80.6395 742.67,81.3061 741.5,82.5C 740.702,82.0431 740.369,81.3764 740.5,80.5 Z"/></g>
<g><path style="opacity:1" fill="#585858" d="M 875.5,79.5 C 877.973,79.9473 878.14,80.9473 876,82.5C 875.517,81.552 875.351,80.552 875.5,79.5 Z"/></g>
<g><path style="opacity:1" fill="#767676" d="M 1275.5,80.5 C 1276.38,80.3691 1277.04,80.7025 1277.5,81.5C 1275.19,82.8734 1274.52,82.5401 1275.5,80.5 Z"/></g>
<g><path style="opacity:1" fill="#6a6a6a" d="M 620.5,85.5 C 622.337,85.6395 622.67,86.3061 621.5,87.5C 620.702,87.0431 620.369,86.3764 620.5,85.5 Z"/></g>
<g><path style="opacity:1" fill="#696969" d="M 1101.5,84.5 C 1103.62,85.3676 1103.79,86.3676 1102,87.5C 1100.32,86.8235 1100.15,85.8235 1101.5,84.5 Z"/></g>
<g><path style="opacity:1" fill="#858585" d="M 1155.5,85.5 C 1156.68,85.281 1157.68,85.6143 1158.5,86.5C 1156.95,87.7979 1155.95,87.4646 1155.5,85.5 Z"/></g>
<g><path style="opacity:1" fill="#5a5a5a" d="M 350.5,85.5 C 352.76,86.2376 352.927,87.2376 351,88.5C 350.517,87.552 350.351,86.552 350.5,85.5 Z"/></g>
<g><path style="opacity:1" fill="#515151" d="M 929.5,85.5 C 931.983,85.73 932.483,86.3966 931,87.5C 929.97,87.1639 929.47,86.4972 929.5,85.5 Z"/></g>
<g><path style="opacity:1" fill="#717171" d="M 1270.5,85.5 C 1273.8,85.3287 1274.13,85.9954 1271.5,87.5C 1270.7,87.0431 1270.37,86.3764 1270.5,85.5 Z"/></g>
<g><path style="opacity:1" fill="#5a5a5a" d="M 1630.5,85.5 C 1632.76,86.2376 1632.93,87.2376 1631,88.5C 1630.52,87.552 1630.35,86.552 1630.5,85.5 Z"/></g>
<g><path style="opacity:1" fill="#6e6e6e" d="M 160.5,90.5 C 162.465,90.9483 162.798,91.9483 161.5,93.5C 160.614,92.675 160.281,91.675 160.5,90.5 Z"/></g>
<g><path style="opacity:1" fill="#7d7d7d" d="M 495.5,90.5 C 497.465,90.9483 497.798,91.9483 496.5,93.5C 495.614,92.675 495.281,91.675 495.5,90.5 Z"/></g>
<g><path style="opacity:1" fill="#686868" d="M 1185.5,90.5 C 1187.34,90.6395 1187.67,91.3061 1186.5,92.5C 1185.7,92.0431 1185.37,91.3764 1185.5,90.5 Z"/></g>
<g><path style="opacity:1" fill="#696969" d="M 1245.5,90.5 C 1247.34,90.6395 1247.67,91.3061 1246.5,92.5C 1245.7,92.0431 1245.37,91.3764 1245.5,90.5 Z"/></g>
<g><path style="opacity:1" fill="#6d6d6d" d="M 1440.5,90.5 C 1442.46,90.9483 1442.8,91.9483 1441.5,93.5C 1440.61,92.675 1440.28,91.675 1440.5,90.5 Z"/></g>
<g><path style="opacity:1" fill="#7d7d7d" d="M 1775.5,90.5 C 1777.46,90.9483 1777.8,91.9483 1776.5,93.5C 1775.61,92.675 1775.28,91.675 1775.5,90.5 Z"/></g>
<g><path style="opacity:1" fill="#666666" d="M 994.5,95.5 C 995.675,95.281 996.675,95.6143 997.5,96.5C 995.948,97.7979 994.948,97.4646 994.5,95.5 Z"/></g>
<g><path style="opacity:1" fill="#6d6d6d" d="M 920.5,99.5 C 922.465,99.9483 922.798,100.948 921.5,102.5C 920.614,101.675 920.281,100.675 920.5,99.5 Z"/></g>
<g><path style="opacity:1" fill="#535353" d="M 130.5,100.5 C 132.465,100.948 132.798,101.948 131.5,103.5C 130.614,102.675 130.281,101.675 130.5,100.5 Z"/></g>
<g><path style="opacity:1" fill="#4c4c4c" d="M 1174.5,100.5 C 1176.34,100.639 1176.67,101.306 1175.5,102.5C 1174.7,102.043 1174.37,101.376 1174.5,100.5 Z"/></g>
<g><path style="opacity:1" fill="#535353" d="M 1410.5,100.5 C 1412.46,100.948 1412.8,101.948 1411.5,103.5C 1410.61,102.675 1410.28,101.675 1410.5,100.5 Z"/></g>
<g><path style="opacity:1" fill="#565656" d="M 760.5,101.5 C 762.337,101.639 762.67,102.306 761.5,103.5C 760.702,103.043 760.369,102.376 760.5,101.5 Z"/></g>
<g><path style="opacity:1" fill="#727272" d="M 175.5,105.5 C 176.376,105.369 177.043,105.702 177.5,106.5C 175.192,107.873 174.525,107.54 175.5,105.5 Z"/></g>
<g><path style="opacity:1" fill="#656565" d="M 350.5,105.5 C 352.337,105.639 352.67,106.306 351.5,107.5C 350.702,107.043 350.369,106.376 350.5,105.5 Z"/></g>
<g><path style="opacity:1" fill="#656565" d="M 830.5,105.5 C 832.337,105.639 832.67,106.306 831.5,107.5C 830.702,107.043 830.369,106.376 830.5,105.5 Z"/></g>
<g><path style="opacity:1" fill="#727272" d="M 1455.5,105.5 C 1456.38,105.369 1457.04,105.702 1457.5,106.5C 1455.19,107.873 1454.52,107.54 1455.5,105.5 Z"/></g>
<g><path style="opacity:1" fill="#656565" d="M 1630.5,105.5 C 1632.34,105.639 1632.67,106.306 1631.5,107.5C 1630.7,107.043 1630.37,106.376 1630.5,105.5 Z"/></g>
<g><path style="opacity:1" fill="#6f6f6f" d="M 105.5,110.5 C 106.376,110.369 107.043,110.702 107.5,111.5C 105.192,112.873 104.525,112.54 105.5,110.5 Z"/></g>
<g><path style="opacity:1" fill="#999999" d="M 140.5,110.5 C 142.337,110.639 142.67,111.306 141.5,112.5C 140.702,112.043 140.369,111.376 140.5,110.5 Z"/></g>
<g><path style="opacity:1" fill="#616161" d="M 295.5,110.5 C 298.548,110.494 299.048,111.494 297,113.5C 295.961,112.756 295.461,111.756 295.5,110.5 Z"/></g>
<g><path style="opacity:1" fill="#6d6d6d" d="M 440.5,109.5 C 442.465,109.948 442.798,110.948 441.5,112.5C 440.614,111.675 440.281,110.675 440.5,109.5 Z"/></g>
<g><path style="opacity:1" fill="#6f6f6f" d="M 1385.5,110.5 C 1386.38,110.369 1387.04,110.702 1387.5,111.5C 1385.19,112.873 1384.52,112.54 1385.5,110.5 Z"/></g>
<g><path style="opacity:1" fill="#999999" d="M 1420.5,110.5 C 1422.34,110.639 1422.67,111.306 1421.5,112.5C 1420.7,112.043 1420.37,111.376 1420.5,110.5 Z"/></g>
<g><path style="opacity:1" fill="#616161" d="M 1575.5,110.5 C 1578.55,110.494 1579.05,111.494 1577,113.5C 1575.96,112.756 1575.46,111.756 1575.5,110.5 Z"/></g>
<g><path style="opacity:1" fill="#6d6d6d" d="M 1720.5,109.5 C 1722.46,109.948 1722.8,110.948 1721.5,112.5C 1720.61,111.675 1720.28,110.675 1720.5,109.5 Z"/></g>
<g><path style="opacity:1" fill="#4e4e4e" d="M 15.5,114.5 C 17.337,114.639 17.6704,115.306 16.5,116.5C 15.7025,116.043 15.3691,115.376 15.5,114.5 Z"/></g>
<g><path style="opacity:1" fill="#575757" d="M 1265.5,114.5 C 1267.97,114.947 1268.14,115.947 1266,117.5C 1265.52,116.552 1265.35,115.552 1265.5,114.5 Z"/></g>
<g><path style="opacity:1" fill="#4e4e4e" d="M 1295.5,114.5 C 1297.34,114.639 1297.67,115.306 1296.5,116.5C 1295.7,116.043 1295.37,115.376 1295.5,114.5 Z"/></g>
<g><path style="opacity:1" fill="#6e6e6e" d="M 270.5,115.5 C 272.465,115.948 272.798,116.948 271.5,118.5C 270.614,117.675 270.281,116.675 270.5,115.5 Z"/></g>
<g><path style="opacity:1" fill="#5c5c5c" d="M 570.5,114.5 C 572.225,114.843 572.725,115.843 572,117.5C 570.961,116.756 570.461,115.756 570.5,114.5 Z"/></g>
<g><path style="opacity:1" fill="#6e6e6e" d="M 1550.5,115.5 C 1552.46,115.948 1552.8,116.948 1551.5,118.5C 1550.61,117.675 1550.28,116.675 1550.5,115.5 Z"/></g>
<g><path style="opacity:1" fill="#5c5c5c" d="M 1850.5,114.5 C 1852.23,114.843 1852.73,115.843 1852,117.5C 1850.96,116.756 1850.46,115.756 1850.5,114.5 Z"/></g>
<g><path style="opacity:1" fill="#535353" d="M 170.5,119.5 C 172.337,119.639 172.67,120.306 171.5,121.5C 170.702,121.043 170.369,120.376 170.5,119.5 Z"/></g>
<g><path style="opacity:1" fill="#737373" d="M 1100.5,119.5 C 1102.46,119.948 1102.8,120.948 1101.5,122.5C 1100.61,121.675 1100.28,120.675 1100.5,119.5 Z"/></g>
<g><path style="opacity:1" fill="#535353" d="M 1450.5,119.5 C 1452.34,119.639 1452.67,120.306 1451.5,121.5C 1450.7,121.043 1450.37,120.376 1450.5,119.5 Z"/></g>
<g><path style="opacity:1" fill="#6a6a6a" d="M 840.5,120.5 C 842.337,120.639 842.67,121.306 841.5,122.5C 840.702,122.043 840.369,121.376 840.5,120.5 Z"/></g>
<g><path style="opacity:1" fill="#5b5b5b" d="M 45.5,125.5 C 47.337,125.639 47.6704,126.306 46.5,127.5C 45.7025,127.043 45.3691,126.376 45.5,125.5 Z"/></g>
<g><path style="opacity:1" fill="#5b5b5b" d="M 1325.5,125.5 C 1327.34,125.639 1327.67,126.306 1326.5,127.5C 1325.7,127.043 1325.37,126.376 1325.5,125.5 Z"/></g>
<g><path style="opacity:1" fill="#6b6b6b" d="M 185.5,125.5 C 187.983,125.73 188.483,126.397 187,127.5C 185.97,127.164 185.47,126.497 185.5,125.5 Z"/></g>
<g><path style="opacity:1" fill="#6d6d6d" d="M 1045.5,125.5 C 1047.34,125.639 1047.67,126.306 1046.5,127.5C 1045.7,127.043 1045.37,126.376 1045.5,125.5 Z"/></g>
<g><path style="opacity:1" fill="#646464" d="M 1160.5,125.5 C 1162.34,125.639 1162.67,126.306 1161.5,127.5C 1160.7,127.043 1160.37,126.376 1160.5,125.5 Z"/></g>
<g><path style="opacity:1" fill="#6b6b6b" d="M 1465.5,125.5 C 1467.98,125.73 1468.48,126.397 1467,127.5C 1465.97,127.164 1465.47,126.497 1465.5,125.5 Z"/></g>
<g><path style="opacity:1" fill="#606060" d="M 895.5,129.5 C 897.465,129.948 897.798,130.948 896.5,132.5C 895.614,131.675 895.281,130.675 895.5,129.5 Z"/></g>
<g><path style="opacity:1" fill="#757575" d="M 530.5,130.5 C 532.337,130.639 532.67,131.306 531.5,132.5C 530.702,132.043 530.369,131.376 530.5,130.5 Z"/></g>
<g><path style="opacity:1" fill="#616161" d="M 840.5,130.5 C 842.337,130.639 842.67,131.306 841.5,132.5C 840.702,132.043 840.369,131.376 840.5,130.5 Z"/></g>
<g><path style="opacity:1" fill="#757575" d="M 1810.5,130.5 C 1812.34,130.639 1812.67,131.306 1811.5,132.5C 1810.7,132.043 1810.37,131.376 1810.5,130.5 Z"/></g>
<g><path style="opacity:1" fill="#656565" d="M 200.5,135.5 C 202.225,135.843 202.725,136.843 202,138.5C 200.961,137.756 200.461,136.756 200.5,135.5 Z"/></g>
<g><path style="opacity:1" fill="#636363" d="M 300.5,135.5 C 302.337,135.639 302.67,136.306 301.5,137.5C 300.702,137.043 300.369,136.376 300.5,135.5 Z"/></g>
<g><path style="opacity:1" fill="#737373" d="M 510.5,135.5 C 511.675,135.281 512.675,135.614 513.5,136.5C 511.948,137.798 510.948,137.465 510.5,135.5 Z"/></g>
<g><path style="opacity:1" fill="#656565" d="M 1480.5,135.5 C 1482.23,135.843 1482.73,136.843 1482,138.5C 1480.96,137.756 1480.46,136.756 1480.5,135.5 Z"/></g>
<g><path style="opacity:1" fill="#636363" d="M 1580.5,135.5 C 1582.34,135.639 1582.67,136.306 1581.5,137.5C 1580.7,137.043 1580.37,136.376 1580.5,135.5 Z"/></g>
<g><path style="opacity:1" fill="#737373" d="M 1790.5,135.5 C 1791.68,135.281 1792.68,135.614 1793.5,136.5C 1791.95,137.798 1790.95,137.465 1790.5,135.5 Z"/></g>
<g><path style="opacity:1" fill="#9b9b9b" d="M 280.5,140.5 C 282.337,140.639 282.67,141.306 281.5,142.5C 280.702,142.043 280.369,141.376 280.5,140.5 Z"/></g>
<g><path style="opacity:1" fill="#696969" d="M 605.5,139.5 C 607.465,139.948 607.798,140.948 606.5,142.5C 605.614,141.675 605.281,140.675 605.5,139.5 Z"/></g>
<g><path style="opacity:1" fill="#828282" d="M 705.5,139.5 C 707.465,139.948 707.798,140.948 706.5,142.5C 705.614,141.675 705.281,140.675 705.5,139.5 Z"/></g>
<g><path style="opacity:1" fill="#525252" d="M 876.5,139.5 C 877.573,140.251 877.74,141.251 877,142.5C 875.272,141.648 875.105,140.648 876.5,139.5 Z"/></g>
<g><path style="opacity:1" fill="#9b9b9b" d="M 1560.5,140.5 C 1562.34,140.639 1562.67,141.306 1561.5,142.5C 1560.7,142.043 1560.37,141.376 1560.5,140.5 Z"/></g>
<g><path style="opacity:1" fill="#636363" d="M 59.5,140.5 C 60.675,140.281 61.675,140.614 62.5,141.5C 60.9483,142.798 59.9483,142.465 59.5,140.5 Z"/></g>
<g><path style="opacity:1" fill="#747474" d="M 120.5,140.5 C 122.337,140.639 122.67,141.306 121.5,142.5C 120.702,142.043 120.369,141.376 120.5,140.5 Z"/></g>
<g><path style="opacity:1" fill="#6f6f6f" d="M 305.5,140.5 C 307.337,140.639 307.67,141.306 306.5,142.5C 305.702,142.043 305.369,141.376 305.5,140.5 Z"/></g>
<g><path style="opacity:1" fill="#535353" d="M 1110.5,140.5 C 1112.97,140.947 1113.14,141.947 1111,143.5C 1110.52,142.552 1110.35,141.552 1110.5,140.5 Z"/></g>
<g><path style="opacity:1" fill="#636363" d="M 1339.5,140.5 C 1340.68,140.281 1341.68,140.614 1342.5,141.5C 1340.95,142.798 1339.95,142.465 1339.5,140.5 Z"/></g>
<g><path style="opacity:1" fill="#747474" d="M 1400.5,140.5 C 1402.34,140.639 1402.67,141.306 1401.5,142.5C 1400.7,142.043 1400.37,141.376 1400.5,140.5 Z"/></g>
<g><path style="opacity:1" fill="#6f6f6f" d="M 1585.5,140.5 C 1587.34,140.639 1587.67,141.306 1586.5,142.5C 1585.7,142.043 1585.37,141.376 1585.5,140.5 Z"/></g>
<g><path style="opacity:1" fill="#545454" d="M 741.5,144.5 C 742.573,145.251 742.74,146.251 742,147.5C 740.272,146.648 740.105,145.648 741.5,144.5 Z"/></g>
<g><path style="opacity:1" fill="#848484" d="M 850.5,145.5 C 851.675,145.281 852.675,145.614 853.5,146.5C 851.948,147.798 850.948,147.465 850.5,145.5 Z"/></g>
<g><path style="opacity:1" fill="#717171" d="M 885.5,145.5 C 886.675,145.281 887.675,145.614 888.5,146.5C 886.948,147.798 885.948,147.465 885.5,145.5 Z"/></g>
<g><path style="opacity:1" fill="#838383" d="M 410.5,145.5 C 412.337,145.639 412.67,146.306 411.5,147.5C 410.702,147.043 410.369,146.376 410.5,145.5 Z"/></g>
<g><path style="opacity:1" fill="#787878" d="M 570.5,145.5 C 572.337,145.639 572.67,146.306 571.5,147.5C 570.702,147.043 570.369,146.376 570.5,145.5 Z"/></g>
<g><path style="opacity:1" fill="#676767" d="M 1005.5,145.5 C 1007.34,145.639 1007.67,146.306 1006.5,147.5C 1005.7,147.043 1005.37,146.376 1005.5,145.5 Z"/></g>
<g><path style="opacity:1" fill="#838383" d="M 1690.5,145.5 C 1692.34,145.639 1692.67,146.306 1691.5,147.5C 1690.7,147.043 1690.37,146.376 1690.5,145.5 Z"/></g>
<g><path style="opacity:1" fill="#787878" d="M 1850.5,145.5 C 1852.34,145.639 1852.67,146.306 1851.5,147.5C 1850.7,147.043 1850.37,146.376 1850.5,145.5 Z"/></g>
</svg>
